<?xml version="1.0" encoding="UTF-8" standalone="no"?>
<svg width="17px" height="14px" viewBox="0 0 17 14" version="1.1" xmlns="http://www.w3.org/2000/svg" xmlns:xlink="http://www.w3.org/1999/xlink" xmlns:sketch="http://www.bohemiancoding.com/sketch/ns">
    <title>Slice 1</title>
    <description>Created with Sketch (http://www.bohemiancoding.com/sketch)</description>
    <defs></defs>
    <g id="Page-1" stroke="none" stroke-width="1" fill="none" fill-rule="evenodd" sketch:type="MSPage">
        <g id="coffee" sketch:type="MSLayerGroup" transform="translate(-4.000000, -5.000000)" fill="#444444">
            <g id="Layer_1" transform="translate(4.000000, 5.000000)" sketch:type="MSShapeGroup">
                <path d="M13,14 L1,14 C0.447,14 0,13.553 0,13 C0,12.447 0.447,12 1,12 L13,12 C13.553,12 14,12.447 14,13 C14,13.553 13.553,14 13,14 L13,14 L13,14 L13,14 Z M13,14" id="Shape"></path>
                <path d="M13.5,0 L1,0 L1,9 C1,10.1 1.9,11 3,11 L11,11 C12.1,11 13,10.1 13,9 L13,7 L13.5,7 C15.43,7 17,5.43 17,3.5 C17,1.57 15.43,0 13.5,0 L13.5,0 L13.5,0 L13.5,0 Z M11,9 L3,9 L3,2 L11,2 L11,9 L11,9 L11,9 L11,9 Z M13.5,5 L12,5 L12,2 L13.5,2 C14.327,2 15,2.673 15,3.5 C15,4.327 14.327,5 13.5,5 L13.5,5 L13.5,5 L13.5,5 Z M13.5,5" id="Shape"></path>
            </g>
        </g>
    </g>
</svg>