<?xml version="1.0" encoding="UTF-8" standalone="no"?>
<svg width="408px" height="362px" viewBox="0 0 408 362" version="1.1" xmlns="http://www.w3.org/2000/svg" xmlns:xlink="http://www.w3.org/1999/xlink" xmlns:sketch="http://www.bohemiancoding.com/sketch/ns">
    <title>Slice 1</title>
    <description>Created with Sketch (http://www.bohemiancoding.com/sketch)</description>
    <defs></defs>
    <g id="Page-1" stroke="none" stroke-width="1" fill="none" fill-rule="evenodd" sketch:type="MSPage">
        <g id="SailBot-Logo-Final-Original" sketch:type="MSLayerGroup" transform="translate(4.000000, -8.000000)" fill="#000000">
            <path d="M148.692753,180.921817 L168.84395,197.744739 C170.182277,197.744739 167.298532,202.592762 167.298532,202.592762 L242,227 C242,227 255.295462,211.462223 217.165332,121.845165 C179.035201,32.2281073 167.298533,16.6903342 167.298533,16.6903342 L135.690432,32.2281071 L148.692753,180.921817 Z M148.692753,180.921817" id="Rectangle-2" sketch:type="MSShapeGroup"></path>
            <path d="M9.99499311,302.316263 C9.99499311,302.316263 30.2402686,304.244386 33.1324519,303.280325 C36.0246352,302.316263 45.060814,295.216884 45.6652431,294.603777 C52.92558,287.23919 64.2234096,277.250684 68.3206691,274.599517 C72.4179287,271.948351 94.3503093,271.948351 94.3503093,271.948351 L26.1408423,259.290491 L9.99499311,302.316263 Z M9.99499311,302.316263" id="Rectangle-2" sketch:type="MSShapeGroup"></path>
            <path d="M221.252055,278.709737 C197.16477,309.236373 170.963819,347.465852 168.952526,348.25602 C166.941233,349.046189 162.72274,348.735772 162.72274,348.735772 L152.363838,364.055879 C152.363838,364.055879 163.87859,365.063764 170.96382,364.055879 C177.535418,363.121058 184.933421,356.179793 185.919165,354.936768 C198.498629,339.074044 218.680229,310.208518 244.029767,278.173389 C246.458854,275.103664 263.480771,272.26862 263.480771,272.26862 L218.747969,268.122811 C218.747969,268.122811 223.402978,275.983799 221.252055,278.709737 Z M221.252055,278.709737" id="Rectangle-2" sketch:type="MSShapeGroup"></path>
            <path d="M0.831844233,258.585329 C0.831844233,258.585329 59.1834764,269.296109 88.3712043,272.159325 C107.030394,273.989728 154.041214,278.816842 198.727123,277.849095 C242.117388,276.909407 283.185008,270.251107 302.600094,266.914139 C339.997752,260.486417 381.611966,244.746064 388.193508,241.400258 C394.775051,238.054452 396.622411,227.331872 396.622411,227.331872 C396.622411,227.331872 300.937105,222.395253 260.654201,222.395253 C260.151699,222.395253 261.257809,231.050189 260.654201,230.955586 C260.050594,230.860983 246.114345,241.400257 244.002575,241.400257 L13.9623364,241.400257 L0.831844233,258.585329 Z M0.831844233,258.585329" id="Rectangle-2" sketch:type="MSShapeGroup"></path>
        </g>
    </g>
</svg>